<?xml version="1.0" encoding="UTF-8" standalone="no"?>
<!-- Created with Inkscape (http://www.inkscape.org/) -->

<svg
   width="512"
   height="512"
   viewBox="0 0 512 512"
   version="1.1"
   id="svg1"
   inkscape:version="1.4 (86a8ad7, 2024-10-11)"
   sodipodi:docname="MuekLogo.svg"
   inkscape:export-filename="MuekLogo.png"
   inkscape:export-xdpi="96"
   inkscape:export-ydpi="96"
   xmlns:inkscape="http://www.inkscape.org/namespaces/inkscape"
   xmlns:sodipodi="http://sodipodi.sourceforge.net/DTD/sodipodi-0.dtd"
   xmlns="http://www.w3.org/2000/svg"
   xmlns:svg="http://www.w3.org/2000/svg">
  <sodipodi:namedview
     id="namedview1"
     pagecolor="#ffffff"
     bordercolor="#000000"
     borderopacity="0.25"
     inkscape:showpageshadow="2"
     inkscape:pageopacity="0.0"
     inkscape:pagecheckerboard="0"
     inkscape:deskcolor="#d1d1d1"
     inkscape:document-units="px"
     inkscape:zoom="0.44504914"
     inkscape:cx="61.790929"
     inkscape:cy="661.72468"
     inkscape:window-width="2560"
     inkscape:window-height="1566"
     inkscape:window-x="-11"
     inkscape:window-y="-11"
     inkscape:window-maximized="1"
     inkscape:current-layer="layer1" />
  <defs
     id="defs1" />
  <g
     inkscape:label="图层 1"
     inkscape:groupmode="layer"
     id="layer1"
     transform="translate(-0.123175,-7.37577)">
    <path
       d="m 178.45619,128.85429 25.76562,44.625 41.47461,71.83593 h 10.54492 l -4.41211,-7.64062 -47.60742,-82.46094 -15.08203,-26.12109 -0.13672,-0.23828 z"
       style="fill:#64c896;stroke:#560d0d;stroke-width:0.258755;stroke-linecap:round;stroke-opacity:0"
       id="path74" />
    <path
       d="m 287.46692,299.40116 -11.66406,-20.20508 -5.27344,9.13086 3.1504,5.45313 3.91796,6.78906 4.59766,7.96094 z"
       style="fill:#64c896;stroke:#560d0d;stroke-width:0.670157;stroke-linecap:round;stroke-opacity:0"
       id="path83" />
    <path
       d="m 339.58216,130.35819 -20.29297,35.15039 -46.07617,79.80664 -4.54883,7.87891 11.07422,19.18164 9.69531,-16.79297 5.92969,-10.26758 23.92578,-41.4414 20.29297,-35.15039 v 24.48437 l -52.77539,91.41211 4.59765,7.96289 48.17774,-83.45117 v 46.21875 14.45117 90.12109 l 29.95703,-51.88476 v -0.004 -90.11914 -14.45117 -46.21875 -15.92383 -10.96289 z"
       style="fill:#64c896;stroke:#560d0d;stroke-width:0.670157;stroke-linecap:round;stroke-opacity:0"
       id="path82" />
    <path
       d="m 264.72572,260.01054 -2.55664,-4.42774 h -10.54492 l 0.20507,0.35742 0.96289,1.66602 6.66211,11.53906 z"
       style="fill:#64c896;stroke:#560d0d;stroke-width:0.670157;stroke-linecap:round;stroke-opacity:0"
       id="path76" />
    <path
       d="m 204.22181,255.5828 h 41.47071 l 4.13281,7.15821 2.0039,3.4707 4.65821,8.06836 -20.88477,36.17578 -6.66211,-11.53906 -24.71875,-42.8125 z"
       style="fill:#64c896;stroke:#560d0d;stroke-width:0.670157;stroke-linecap:round;stroke-opacity:0"
       id="path75" />
    <path
       d="m 267.56166,293.46366 3.15039,5.45313 3.91992,6.78906 4.5957,7.96289 -20.88476,36.17383 -4.59766,-7.96289 -1.91602,-3.31641 -2.0039,-3.4707 -3.14844,-5.45313 z"
       style="fill:#64c896;stroke:#560d0d;stroke-width:0.574503;stroke-linecap:round;stroke-opacity:0"
       id="path77" />
    <path
       d="M 130.82142,30.123818 V 138.49296 a 65.035858,65.035858 0 0 1 32.7207,56.38672 65.035858,65.035858 0 0 1 -32.7207,56.02148 v 140.70313 l 41.77735,98.85937 V 382.91288 201.3328 l 5.76953,9.99219 v 33.99023 10.26758 127.44922 h 8.66601 v -0.13476 -11.4004 -115.91406 -10.26758 -18.97851 l 10.95899,18.97851 h 6.22851 35.54297 l -35.54297,-61.5625 -31.62304,-54.77148 z"
       style="fill:#64c896;stroke:#560d0d;stroke-width:0.731388;stroke-linecap:round;stroke-opacity:0"
       id="path81" />
    <path
       d="m 375.96595,130.19022 v 15.92579 46.21484 14.45508 90.11914 l 9.5,-16.45508 V 175.87577 130.19022 h -0.30664 z"
       style="fill:#64c896;stroke:#560d0d;stroke-width:0.812274;stroke-linecap:round;stroke-opacity:0"
       id="path79" />
  </g>
  <g
     inkscape:groupmode="layer"
     id="layer3"
     inkscape:label="图层 2"
     transform="translate(55.050101)" />
</svg>
